<svg width="4097" height="989" viewBox="0 0 4097 989" fill="none" xmlns="http://www.w3.org/2000/svg">
<g clip-path="url(#clip0_487_479)">
<path d="M439 143.883C454.6 142.283 626.833 143.217 711 143.883C715.5 143.883 725.2 144.984 728 149.383C730.8 153.783 812.5 234.55 853 274.383C856 277.717 862.3 285.984 863.5 292.383C864.7 298.783 864 359.717 863.5 389.383C862.167 394.55 856.5 405.083 844.5 405.883C832.5 406.683 653.833 406.217 566 405.883L565.938 405.892C562.08 406.395 553.981 407.45 550.5 419.883V472.383H793C797.167 473.717 805.9 478.684 807.5 487.883C809.1 497.083 808.167 556.717 807.5 585.383C806 590.883 801 601.983 793 602.383C785 602.783 656.667 602.55 593.5 602.383H416V568.001H451V533.001H416V167.883C417.167 160.55 423.4 145.483 439 143.883ZM496 317.001C490.477 317.001 486 321.478 486 327.001C486 332.523 490.477 337.001 496 337.001H666C671.523 337.001 676 332.523 676 327.001C676 321.478 671.523 317.001 666 317.001H496ZM719 271.383C721.4 290.583 737 295.383 744.5 295.383H838.5L719 175.883V271.383ZM496 253.001C490.477 253.001 486 257.478 486 263.001C486 268.523 490.477 273.001 496 273.001H644C649.523 273.001 654 268.523 654 263.001C654 257.478 649.523 253.001 644 253.001H496Z" fill="url(#paint0_linear_487_479)"/>
<rect x="556" y="533" width="35" height="35" fill="#5728DA"/>
<rect x="521" y="568" width="35" height="35" fill="#5227D9"/>
<rect x="556" y="568" width="35" height="35" fill="#7034E3"/>
<rect x="521" y="533" width="35" height="35" fill="#7034E3"/>
<rect x="486" y="533" width="35" height="35" fill="#5227D9"/>
<rect x="451" y="568" width="35" height="35" fill="#5227D9"/>
<rect x="486" y="568" width="35" height="35" fill="#7034E3"/>
<rect x="451" y="533" width="35" height="35" fill="#7034E3"/>
<rect x="416" y="568" width="35" height="35" fill="#7034E3"/>
<rect x="556" y="603" width="35" height="35" fill="#5227D9"/>
<rect x="521" y="638" width="35" height="35" fill="#5227D9"/>
<rect x="556" y="638" width="35" height="35" fill="#7034E3"/>
<rect x="521" y="603" width="35" height="35" fill="#7034E3"/>
<rect x="486" y="603" width="35" height="35" fill="#5227D9"/>
<rect x="486" y="638" width="35" height="35" fill="#7034E3"/>
<rect x="451" y="603" width="35" height="35" fill="#7034E3"/>
<rect x="416" y="638" width="35" height="35" fill="#7034E3"/>
<rect x="556" y="673" width="35" height="35" fill="#5227D9"/>
<rect x="556" y="708" width="35" height="35" fill="#7034E3"/>
<rect x="521" y="673" width="35" height="35" fill="#7034E3"/>
<rect x="451" y="708" width="35" height="35" fill="#5227D9"/>
<rect x="591" y="742" width="35" height="35" fill="#5227D9"/>
<rect x="626" y="673" width="35" height="35" fill="#7034E3"/>
<rect x="521" y="742" width="35" height="35" fill="#7034E3"/>
<rect x="556" y="812" width="35" height="35" fill="#5227D9"/>
<rect x="451" y="777" width="35" height="35" fill="#5227D9"/>
<path d="M977.5 782C949.5 782 925.833 777.5 906.5 768.5C887.5 759.5 872.833 746.667 862.5 730C852.5 713 846.833 692.833 845.5 669.5C845.167 662.833 845 655.333 845 647C845 638.333 845.167 630.833 845.5 624.5C846.833 600.833 852.833 580.667 863.5 564C874.167 547.333 889 534.5 908 525.5C927.333 516.5 950.5 512 977.5 512C1004.83 512 1028 516.5 1047 525.5C1066.33 534.5 1081.33 547.333 1092 564C1102.67 580.667 1108.67 600.833 1110 624.5C1110.33 630.833 1110.5 638.333 1110.5 647C1110.5 655.333 1110.33 662.833 1110 669.5C1108.67 692.833 1102.83 713 1092.5 730C1082.5 746.667 1067.83 759.5 1048.5 768.5C1029.5 777.5 1005.83 782 977.5 782ZM977.5 721C992.5 721 1003.33 716.5 1010 707.5C1017 698.5 1021 685 1022 667C1022.33 662 1022.5 655.333 1022.5 647C1022.5 638.667 1022.33 632 1022 627C1021 609.333 1017 596 1010 587C1003.33 577.667 992.5 573 977.5 573C962.833 573 952 577.667 945 587C938 596 934.167 609.333 933.5 627C933.167 632 933 638.667 933 647C933 655.333 933.167 662 933.5 667C934.167 685 938 698.5 945 707.5C952 716.5 962.833 721 977.5 721ZM1172.18 777C1168.51 777 1165.51 775.833 1163.18 773.5C1160.84 771.167 1159.68 768.167 1159.68 764.5V529.5C1159.68 526.167 1160.84 523.333 1163.18 521C1165.51 518.333 1168.51 517 1172.18 517H1229.68C1233.34 517 1236.34 518.333 1238.68 521C1241.01 523.333 1242.18 526.167 1242.18 529.5V549.5C1251.18 539.167 1261.84 531.167 1274.18 525.5C1286.84 519.833 1301.01 517 1316.68 517H1338.68C1342.01 517 1344.84 518.167 1347.18 520.5C1349.84 522.833 1351.18 525.833 1351.18 529.5V581C1351.18 584.333 1349.84 587.333 1347.18 590C1344.84 592.333 1342.01 593.5 1338.68 593.5H1290.18C1276.51 593.5 1265.84 597.333 1258.18 605C1250.84 612.333 1247.18 622.833 1247.18 636.5V764.5C1247.18 768.167 1245.84 771.167 1243.18 773.5C1240.84 775.833 1237.84 777 1234.18 777H1172.18ZM1399.23 777C1395.56 777 1392.56 775.833 1390.23 773.5C1387.89 771.167 1386.73 768.167 1386.73 764.5V529.5C1386.73 525.833 1387.89 522.833 1390.23 520.5C1392.56 518.167 1395.56 517 1399.23 517H1453.73C1457.39 517 1460.39 518.167 1462.73 520.5C1465.06 522.833 1466.23 525.833 1466.23 529.5V546.5C1472.89 537.5 1482.23 529.667 1494.23 523C1506.23 516 1520.39 512.333 1536.73 512C1575.06 511.333 1601.39 525.833 1615.73 555.5C1623.39 542.833 1634.39 532.5 1648.73 524.5C1663.06 516.167 1678.73 512 1695.73 512C1713.06 512 1728.56 516 1742.23 524C1756.23 531.667 1767.39 543.667 1775.73 560C1784.06 576 1788.23 596.833 1788.23 622.5V764.5C1788.23 768.167 1786.89 771.167 1784.23 773.5C1781.89 775.833 1779.06 777 1775.73 777H1717.73C1714.06 777 1710.89 775.833 1708.23 773.5C1705.89 771.167 1704.73 768.167 1704.73 764.5V626C1704.73 614.333 1703.06 605.167 1699.73 598.5C1696.39 591.5 1691.89 586.5 1686.23 583.5C1680.56 580.5 1674.06 579 1666.73 579C1660.73 579 1654.73 580.5 1648.73 583.5C1643.06 586.5 1638.39 591.5 1634.73 598.5C1631.39 605.167 1629.73 614.333 1629.73 626V764.5C1629.73 768.167 1628.56 771.167 1626.23 773.5C1623.89 775.833 1620.89 777 1617.23 777H1559.23C1555.56 777 1552.56 775.833 1550.23 773.5C1547.89 771.167 1546.73 768.167 1546.73 764.5V626C1546.73 614.333 1544.89 605.167 1541.23 598.5C1537.56 591.5 1532.89 586.5 1527.23 583.5C1521.56 580.5 1515.23 579 1508.23 579C1502.23 579 1496.23 580.5 1490.23 583.5C1484.56 586.5 1479.89 591.5 1476.23 598.5C1472.89 605.167 1471.23 614.167 1471.23 625.5V764.5C1471.23 768.167 1469.89 771.167 1467.23 773.5C1464.89 775.833 1461.89 777 1458.23 777H1399.23ZM1922.25 782C1904.25 782 1888.08 778.667 1873.75 772C1859.75 765 1848.58 755.667 1840.25 744C1831.91 732.333 1827.75 719.167 1827.75 704.5C1827.75 680.833 1837.41 662.167 1856.75 648.5C1876.08 634.5 1901.75 625 1933.75 620L1996.25 610.5V603.5C1996.25 591.5 1993.75 582.333 1988.75 576C1983.75 569.667 1974.58 566.5 1961.25 566.5C1951.91 566.5 1944.25 568.333 1938.25 572C1932.58 575.667 1928.08 580.667 1924.75 587C1921.75 591.333 1917.58 593.5 1912.25 593.5H1856.25C1852.58 593.5 1849.75 592.5 1847.75 590.5C1845.75 588.167 1844.91 585.5 1845.25 582.5C1845.25 576.5 1847.41 569.667 1851.75 562C1856.41 554 1863.41 546.167 1872.75 538.5C1882.08 530.833 1894.08 524.5 1908.75 519.5C1923.41 514.5 1941.08 512 1961.75 512C1983.41 512 2001.91 514.5 2017.25 519.5C2032.58 524.5 2044.91 531.5 2054.25 540.5C2063.91 549.5 2071.08 560.167 2075.75 572.5C2080.41 584.5 2082.75 597.833 2082.75 612.5V764.5C2082.75 768.167 2081.41 771.167 2078.75 773.5C2076.41 775.833 2073.58 777 2070.25 777H2012.25C2008.58 777 2005.58 775.833 2003.25 773.5C2000.91 771.167 1999.75 768.167 1999.75 764.5V747C1995.41 753.333 1989.58 759.167 1982.25 764.5C1974.91 769.833 1966.25 774 1956.25 777C1946.58 780.333 1935.25 782 1922.25 782ZM1945.75 725C1955.41 725 1964.08 723 1971.75 719C1979.75 714.667 1985.91 708.167 1990.25 699.5C1994.91 690.5 1997.25 679.333 1997.25 666V659L1954.75 666.5C1939.08 669.167 1927.58 673.333 1920.25 679C1913.25 684.333 1909.75 690.667 1909.75 698C1909.75 703.667 1911.41 708.5 1914.75 712.5C1918.08 716.5 1922.41 719.667 1927.75 722C1933.08 724 1939.08 725 1945.75 725ZM2270.21 777C2248.88 777 2230.38 773.667 2214.71 767C2199.38 760 2187.55 749.333 2179.21 735C2170.88 720.333 2166.71 701.5 2166.71 678.5V582.5H2127.71C2124.05 582.5 2120.88 581.333 2118.21 579C2115.88 576.667 2114.71 573.667 2114.71 570V529.5C2114.71 525.833 2115.88 522.833 2118.21 520.5C2120.88 518.167 2124.05 517 2127.71 517H2166.71V434.5C2166.71 430.833 2167.88 427.833 2170.21 425.5C2172.88 423.167 2175.88 422 2179.21 422H2237.21C2240.88 422 2243.88 423.167 2246.21 425.5C2248.55 427.833 2249.71 430.833 2249.71 434.5V517H2312.21C2315.88 517 2318.88 518.167 2321.21 520.5C2323.55 522.833 2324.71 525.833 2324.71 529.5V570C2324.71 573.667 2323.55 576.667 2321.21 579C2318.88 581.333 2315.88 582.5 2312.21 582.5H2249.71V671.5C2249.71 682.833 2251.88 691.833 2256.21 698.5C2260.55 705.167 2267.88 708.5 2278.21 708.5H2316.71C2320.38 708.5 2323.38 709.667 2325.71 712C2328.05 714.333 2329.21 717.333 2329.21 721V764.5C2329.21 768.167 2328.05 771.167 2325.71 773.5C2323.38 775.833 2320.38 777 2316.71 777H2270.21ZM2495.06 777C2491.39 777 2488.39 775.833 2486.06 773.5C2483.73 771.167 2482.56 768.167 2482.56 764.5V439.5C2482.56 435.833 2483.73 432.833 2486.06 430.5C2488.39 428.167 2491.39 427 2495.06 427H2724.56C2728.23 427 2731.23 428.167 2733.56 430.5C2736.23 432.833 2737.56 435.833 2737.56 439.5V490C2737.56 493.667 2736.23 496.667 2733.56 499C2731.23 501.333 2728.23 502.5 2724.56 502.5H2570.56V576H2714.56C2718.23 576 2721.23 577.333 2723.56 580C2726.23 582.333 2727.56 585.333 2727.56 589V639C2727.56 642.333 2726.23 645.333 2723.56 648C2721.23 650.333 2718.23 651.5 2714.56 651.5H2570.56V764.5C2570.56 768.167 2569.39 771.167 2567.06 773.5C2564.73 775.833 2561.73 777 2558.06 777H2495.06ZM2878.71 782C2859.71 782 2842.71 777.667 2827.71 769C2813.04 760.333 2801.54 747.667 2793.21 731C2784.88 714 2780.71 693.333 2780.71 669V529.5C2780.71 525.833 2781.88 522.833 2784.21 520.5C2786.54 518.167 2789.54 517 2793.21 517H2855.71C2859.38 517 2862.38 518.167 2864.71 520.5C2867.04 522.833 2868.21 525.833 2868.21 529.5V666C2868.21 698.667 2882.88 715 2912.21 715C2925.88 715 2936.71 710.833 2944.71 702.5C2953.04 693.833 2957.21 681.667 2957.21 666V529.5C2957.21 525.833 2958.38 522.833 2960.71 520.5C2963.04 518.167 2966.04 517 2969.71 517H3032.21C3035.88 517 3038.88 518.167 3041.21 520.5C3043.54 522.833 3044.71 525.833 3044.71 529.5V764.5C3044.71 768.167 3043.54 771.167 3041.21 773.5C3038.88 775.833 3035.88 777 3032.21 777H2974.21C2970.88 777 2967.88 775.833 2965.21 773.5C2962.88 771.167 2961.71 768.167 2961.71 764.5V745.5C2953.04 757.5 2941.71 766.667 2927.71 773C2914.04 779 2897.71 782 2878.71 782ZM3210.52 782C3188.86 782 3170.36 779.667 3155.02 775C3140.02 770 3127.69 764 3118.02 757C3108.69 750 3101.69 742.833 3097.02 735.5C3092.36 727.833 3089.86 721.333 3089.52 716C3089.19 712.333 3090.36 709.333 3093.02 707C3095.69 704.333 3098.52 703 3101.52 703H3158.52C3159.52 703 3160.36 703.167 3161.02 703.5C3161.69 703.833 3162.69 704.5 3164.02 705.5C3168.36 707.833 3172.69 710.833 3177.02 714.5C3181.36 717.833 3186.36 720.833 3192.02 723.5C3197.69 726.167 3204.52 727.5 3212.52 727.5C3221.86 727.5 3229.69 725.667 3236.02 722C3242.36 718.333 3245.52 712.833 3245.52 705.5C3245.52 700.167 3244.02 695.833 3241.02 692.5C3238.02 688.833 3231.86 685.333 3222.52 682C3213.52 678.667 3199.86 675.333 3181.52 672C3164.19 668 3149.02 662.833 3136.02 656.5C3123.02 649.833 3113.02 641.333 3106.02 631C3099.02 620.333 3095.52 607.5 3095.52 592.5C3095.52 579.167 3099.86 566.333 3108.52 554C3117.19 541.667 3129.86 531.667 3146.52 524C3163.19 516 3183.69 512 3208.02 512C3227.36 512 3244.02 514.333 3258.02 519C3272.36 523.333 3284.36 529 3294.02 536C3304.02 543 3311.52 550.167 3316.52 557.5C3321.52 564.833 3324.19 571.5 3324.52 577.5C3324.86 580.833 3323.86 583.833 3321.52 586.5C3319.19 588.833 3316.52 590 3313.52 590H3261.52C3260.19 590 3258.86 589.833 3257.52 589.5C3256.19 588.833 3255.02 588.167 3254.02 587.5C3250.02 585.5 3246.02 582.833 3242.02 579.5C3238.02 576.167 3233.36 573.167 3228.02 570.5C3222.69 567.833 3216.02 566.5 3208.02 566.5C3199.02 566.5 3192.02 568.5 3187.02 572.5C3182.02 576.5 3179.52 581.667 3179.52 588C3179.52 592.333 3180.86 596.333 3183.52 600C3186.52 603.667 3192.36 607 3201.02 610C3210.02 613 3223.86 616.333 3242.52 620C3265.52 623.667 3283.86 629.667 3297.52 638C3311.19 646 3320.86 655.5 3326.52 666.5C3332.19 677.167 3335.02 688.5 3335.02 700.5C3335.02 716.5 3330.19 730.667 3320.52 743C3311.19 755.333 3297.19 765 3278.52 772C3259.86 778.667 3237.19 782 3210.52 782ZM3499.89 782C3460.56 782 3429.22 771.333 3405.89 750C3382.56 728.667 3370.39 697 3369.39 655C3369.39 652.667 3369.39 649.667 3369.39 646C3369.39 642.333 3369.39 639.5 3369.39 637.5C3370.39 611.167 3376.22 588.667 3386.89 570C3397.89 551 3412.89 536.667 3431.89 527C3451.22 517 3473.72 512 3499.39 512C3528.72 512 3552.89 517.833 3571.89 529.5C3591.22 541.167 3605.72 557 3615.39 577C3625.06 597 3629.89 619.833 3629.89 645.5V657.5C3629.89 661.167 3628.56 664.167 3625.89 666.5C3623.56 668.833 3620.72 670 3617.39 670H3457.39C3457.39 670.333 3457.39 670.833 3457.39 671.5C3457.39 672.167 3457.39 672.833 3457.39 673.5C3457.72 683.167 3459.39 692 3462.39 700C3465.39 708 3470.06 714.333 3476.39 719C3482.72 723.667 3490.39 726 3499.39 726C3506.06 726 3511.56 725 3515.89 723C3520.56 720.667 3524.39 718.167 3527.39 715.5C3530.39 712.5 3532.72 710 3534.39 708C3537.39 704.667 3539.72 702.667 3541.39 702C3543.39 701 3546.39 700.5 3550.39 700.5H3612.39C3615.72 700.5 3618.39 701.5 3620.39 703.5C3622.72 705.167 3623.72 707.667 3623.39 711C3623.06 716.667 3620.22 723.5 3614.89 731.5C3609.56 739.5 3601.72 747.5 3591.39 755.5C3581.39 763.167 3568.72 769.5 3553.39 774.5C3538.06 779.5 3520.22 782 3499.89 782ZM3457.39 620.5H3541.89V619.5C3541.89 608.833 3540.22 599.5 3536.89 591.5C3533.89 583.5 3529.06 577.333 3522.39 573C3516.06 568.667 3508.39 566.5 3499.39 566.5C3490.39 566.5 3482.72 568.667 3476.39 573C3470.39 577.333 3465.72 583.5 3462.39 591.5C3459.06 599.5 3457.39 608.833 3457.39 619.5V620.5Z" fill="#5F28DB"/>
</g>
<defs>
<linearGradient id="paint0_linear_487_479" x1="640.081" y1="143" x2="640.081" y2="602.604" gradientUnits="userSpaceOnUse">
<stop stop-color="#942DE6"/>
<stop offset="1" stop-color="#4F27D8"/>
</linearGradient>
<clipPath id="clip0_487_479">
<rect width="4097" height="989" fill="white"/>
</clipPath>
</defs>
</svg>
